<svg xmlns="http://www.w3.org/2000/svg" data-name="Layer 1" viewBox="0 0 5 6.25" x="0px" y="0px"><defs><style>
      .b778857a-237e-4266-9b26-f568acc6b29c {
        fill-rule: evenodd;
      }
    </style></defs><title>Set of wood rings texture logo</title><g><path d="M1.90439,2.17758c.00195-.01448-.01572-.01657-.02333-.00711a.37118.37118,0,0,0-.067.1236.42334.42334,0,0,0-.03422.15939c.002.02888.00917.05732.01243.08611a.26521.26521,0,0,0,.01433.06919,1.28385,1.28385,0,0,0,.083.1388c.00275.005.01173.00211.01048-.00363a.74185.74185,0,0,0-.04658-.12073A.54031.54031,0,0,1,1.84912,2.464.89868.89868,0,0,1,1.86,2.30674C1.86548,2.25965,1.89806,2.22338,1.90439,2.17758Z"/><path d="M3.216,2.538a.76529.76529,0,0,0-.10817-.3322L3.10113,2.209a.56251.56251,0,0,1,.05692.316c-.00427.052-.01554.1029-.02112.15459a.29314.29314,0,0,1-.06436.14406c-.008.01059.00484.0208.01467.01327a.40889.40889,0,0,0,.094-.126A.30126.30126,0,0,0,3.216,2.538Z"/><path d="M3.02054,2.42a.43193.43193,0,0,0-.14034-.29743.59745.59745,0,0,0-.32252-.11561c-.00572-.00076-.0099.0093-.00336.01088.04849.01147.09743.02048.14523.03488a.3535.3535,0,0,1,.13467.087.39833.39833,0,0,1,.07388.12418.52916.52916,0,0,1,.04159.15037.52251.52251,0,0,1-.05171.30384.35974.35974,0,0,1-.281.18161c-.00426.00086-.00426.00763.00054.00676a1.07556,1.07556,0,0,0,.176-.03595.28861.28861,0,0,0,.14515-.108A.51389.51389,0,0,0,3.02054,2.42Z"/><path d="M2.26923,2.88323a.46406.46406,0,0,1-.08725-.069c-.02785-.029-.04835-.06505-.07363-.09631a.32485.32485,0,0,1-.06067-.09766.496.496,0,0,1-.017-.14482A.53453.53453,0,0,1,2.088,2.232a.56513.56513,0,0,1,.13827-.19986.00362.00362,0,0,0-.00365-.00625.44429.44429,0,0,0-.19561.17669.533.533,0,0,0-.07141.2766.43942.43942,0,0,0,.02571.14979.36442.36442,0,0,0,.08338.111c.02922.03112.05321.06556.08544.09375a.37039.37039,0,0,0,.11093.06313C2.26831,2.89967,2.27657,2.8879,2.26923,2.88323Z"/><path class="b778857a-237e-4266-9b26-f568acc6b29c" d="M2.71169,1.93514a.5448.5448,0,0,1,.29163.21722c.00758.01126.01423.02327.02325.03832l-.00144.00023.01784.014a.0851.0851,0,0,0,.00024-.01651l-.00246-.01156a1.41613,1.41613,0,0,0-.11059-.15926.49507.49507,0,0,0-.31579-.15748.65455.65455,0,0,0-.53931.15006.34307.34307,0,0,0-.1149.16934.57213.57213,0,0,1,.24166-.20739A.69577.69577,0,0,1,2.71169,1.93514Z"/><path class="b778857a-237e-4266-9b26-f568acc6b29c" d="M3.9911,2.02859l-.00068-.00915a1.30452,1.30452,0,0,0-.24269-.45857,1.67805,1.67805,0,0,0-.37117-.34333.11539.11539,0,0,0-.018-.00824l.00047.00059c.06032.053.12271.10387.18046.15951a1.504,1.504,0,0,1,.30083.39944A.51693.51693,0,0,1,3.95,2.00657c.01374.05552.02528.11186.03611.168l.01115.05764h.00611C4.0011,2.16423,3.99657,2.09653,3.9911,2.02859Z"/><path class="b778857a-237e-4266-9b26-f568acc6b29c" d="M2.67577,2.157a.31721.31721,0,0,0-.383.02275l-.00687.00492-.0015.0017c-.01308.01485-.0255.03016-.03756.04581h.511A.48837.48837,0,0,1,2.67577,2.157Z"/><path class="b778857a-237e-4266-9b26-f568acc6b29c" d="M1.85158,1.27689a1.35179,1.35179,0,0,1,1.66282.34444,1.57533,1.57533,0,0,0-.782-.4068A1.88884,1.88884,0,0,0,1.85158,1.27689Z"/><path class="b778857a-237e-4266-9b26-f568acc6b29c" d="M2.114,1.48175c.07584-.01824.15086-.04109.22762-.05394a1.06835,1.06835,0,0,1,.54386.03974.75857.75857,0,0,1,.38895.299.10378.10378,0,0,1,.01591.0345c-.03194-.03038-.06288-.06187-.096-.09109a.99569.99569,0,0,0-.58321-.23792,1.86773,1.86773,0,0,0-.47694.02015l-.0171.00121Z"/><path class="b778857a-237e-4266-9b26-f568acc6b29c" d="M1.86144,1.52481a.99043.99043,0,0,1,1.01212-.12c-.08361-.01528-.17-.03721-.25771-.0456a1.31051,1.31051,0,0,0-.26623-.00185,1.20151,1.20151,0,0,0-.26228.06071A2.13341,2.13341,0,0,0,1.86144,1.52481Z"/><path class="b778857a-237e-4266-9b26-f568acc6b29c" d="M2.28531,3.0199a.545.545,0,0,1-.29163-.21723c-.00756-.01133-.01416-.02333-.02327-.0383l.00148-.00028-.01782-.01395a.07724.07724,0,0,0-.00024.01645l.00242.01162a1.41739,1.41739,0,0,0,.11061.15927.49516.49516,0,0,0,.31581.15745.65491.65491,0,0,0,.53932-.15.34295.34295,0,0,0,.11483-.16939.57206.57206,0,0,1-.24164.20742A.69575.69575,0,0,1,2.28531,3.0199Z"/><path class="b778857a-237e-4266-9b26-f568acc6b29c" d="M2.32123,2.798a.31705.31705,0,0,0,.383-.02284l.00685-.0049.00156-.00164c.01306-.01483.02546-.03018.03752-.04584h-.511A.48933.48933,0,0,1,2.32123,2.798Z"/><path class="b778857a-237e-4266-9b26-f568acc6b29c" d="M3.1455,3.67812a1.35191,1.35191,0,0,1-1.66288-.34444,1.57541,1.57541,0,0,0,.78194.40689A1.89065,1.89065,0,0,0,3.1455,3.67812Z"/><path class="b778857a-237e-4266-9b26-f568acc6b29c" d="M2.883,3.47318c-.0758.01835-.15084.04111-.22755.054a1.06779,1.06779,0,0,1-.54387-.03967.75916.75916,0,0,1-.389-.29909.10144.10144,0,0,1-.01585-.03454c.03184.03048.06288.062.09591.09113a.99545.99545,0,0,0,.58315.238,1.86308,1.86308,0,0,0,.477-.02022l.01715-.00114Z"/><path class="b778857a-237e-4266-9b26-f568acc6b29c" d="M3.13558,3.43021a.99034.99034,0,0,1-1.01214.12c.08361.01529.17.03714.25778.04557a1.31141,1.31141,0,0,0,.26618.00185A1.2013,1.2013,0,0,0,2.9097,3.537,2.13159,2.13159,0,0,0,3.13558,3.43021Z"/><path class="b778857a-237e-4266-9b26-f568acc6b29c" d="M2.86745,2.47619a.37275.37275,0,1,1-.37275-.37277A.37277.37277,0,0,1,2.86745,2.47619Z"/><path class="b778857a-237e-4266-9b26-f568acc6b29c" d="M1.63805,3.74512c-.06032-.05306-.12275-.10384-.18048-.15953a1.66169,1.66169,0,0,1-.4206-.74521,1.95286,1.95286,0,0,1-.07426-.35914L.959,2.482a1.3807,1.3807,0,0,0,.03953.423,1.2531,1.2531,0,0,0,.25075.48912,1.67632,1.67632,0,0,0,.37117.34321.11111.11111,0,0,0,.018.00831Z"/><path d="M4.67071,2.60891c.008-.03055-.018-.0577-.02079-.08687a.50126.50126,0,0,1,.00172-.10641c.004-.03166.02114-.056.01521-.08894-.00241-.01341-.0049-.02661-.00834-.03982a.37938.37938,0,0,1-.01821-.04912.53127.53127,0,0,0-.01164-.106l-.012-.03734.02481-.29681H4.48165c-.0331-.08707-.06386-.17052-.09705-.253a.0766.0766,0,0,0-.03315-.035c-.02707-.0145-.05655-.02457-.08037-.03457a.29819.29819,0,0,0-.00189-.10468c-.03879-.08993-.0859-.17626-.1289-.26225l-.10456-.01113C4.0191,1.03568,4.004.97647,3.98638.918A.0932.0932,0,0,0,3.95958.8762c-.082-.06975-.16937-.13378-.2467-.20827A.15026.15026,0,0,0,3.52061.62941a.05763.05763,0,0,1-.061-.00832C3.35553.5562,3.25.49358,3.146.42855A.05473.05473,0,0,0,3.08838.424c-.05265.02294-.1062.04381-.15967.06561-.01827-.0211-.03356-.04-.05023-.05739A.0419.0419,0,0,0,2.85377.4169a2.20048,2.20048,0,0,0-.23231.005C2.52.43294,2.4196.45372,2.31516.47093L2.2851.42953l-.02649.0113v-.026a.56316.56316,0,0,0-.33043.15631.16277.16277,0,0,1-.02526-.034A.21047.21047,0,0,0,1.83073.45842.12505.12505,0,0,0,1.681.4414a.57779.57779,0,0,0-.24639.1321C1.42.59107,1.39214.59679,1.37265.611c-.04818.03514-.095.072-.14233.10823l.0055.00948A.355.355,0,0,0,1.19791.729.11481.11481,0,0,0,1.1455.73842c-.05367.04-.10456.08361-.16073.12933v.14452C.96517.97418.933.99316.90948.993a.05814.05814,0,0,0-.03963.02745C.85058,1.053.838,1.08961.81874,1.1221a.04955.04955,0,0,1-.03842.02222.1465.1465,0,0,0-.14774.06742c-.01228.01525-.029.027-.041.04233a.09737.09737,0,0,0-.02126.04111c-.01238.07528-.021.15127-.03381.22653a.55556.55556,0,0,1-.05355.2238.99347.99347,0,0,0-.05214.086.45087.45087,0,0,0-.086.37593h-.004l.00361.00539a.27517.27517,0,0,0,.00037.08328.42353.42353,0,0,1,.01595.09468.56414.56414,0,0,0-.01255.08752.62924.62924,0,0,0,.005.08734A.54611.54611,0,0,1,.37208,2.652a1.11887,1.11887,0,0,0,.01412.15139l-.03065.3658H.51543c.02319.06114.04531.12047.06794.179L.5626,3.34643.56195,3.361c-.00121.028-.001.05585-.004.08363a.42552.42552,0,0,0-.00488.118c.00492.02852.01355.05569.01833.08261.038.01537.07553.03184.11262.04994a.10282.10282,0,0,1,.04285.04016c.02989.0546.05619.11119.08367.16648l.04219.00562L.831,3.97983l.30185.2597.05245-.02786.03.0252-.00416.05658c.02378,0,.0466.00146.06879.00146l.0043.004a.15008.15008,0,0,0,.18825.04031l.01628.01757a.07448.07448,0,0,0,.07461.03411.05817.05817,0,0,1,.06434.02955.15242.15242,0,0,0,.099.06183l.058.015.06633.041a.05493.05493,0,0,0,.05771.0045l.01113-.00471c.01835.00642.03656.01328.0545.0207a.46815.46815,0,0,0,.19364.02477l.01645-.03344.03114.00027.03854.028c.00164.00508.00616.006.01074.006.09587.00011.19183.00265.28747-.00162.0237-.00108.04644-.02415.0738-.03936.0154.00541.03586.01335.05678.01975a.20322.20322,0,0,0,.076.01978.62867.62867,0,0,0,.35346-.123.39944.39944,0,0,0,.054.04849.12508.12508,0,0,0,.14975.017.57766.57766,0,0,0,.24638-.13214c.01459-.01749.04243-.02325.062-.03748.04814-.03514.095-.072.14241-.10819l-.00553-.00947a.34632.34632,0,0,0,.03786-.00029.11437.11437,0,0,0,.05241-.00941c.05369-.04.10464-.08363.1607-.12937V4.04542l.05718-.05079.02255-.02128a.06237.06237,0,0,0,.03522-.027c.01931-.0326.03184-.06909.05117-.10163a.04908.04908,0,0,1,.03839-.02218.14676.14676,0,0,0,.14778-.06748c.01219-.01525.029-.02689.041-.04231a.09784.09784,0,0,0,.02124-.04119c.01236-.07529.021-.15116.03379-.22647a.55554.55554,0,0,1,.05363-.22374c.01815-.02821.03691-.05628.05214-.086a.45092.45092,0,0,0,.08594-.37591h.004l-.01273-.01966a.08505.08505,0,0,0,.00675-.039A.30919.30919,0,0,1,4.67071,2.60891ZM1.88994.89014,1.9396.98789c.02079.04131.04057.0831.06243.12381a.31372.31372,0,0,0,.03221.04146,1.28922,1.28922,0,0,0-.728.43674L1.1291,1.45225A1.71759,1.71759,0,0,1,1.88994.89014ZM1.804.71531,1.87264.854a1.78065,1.78065,0,0,0-.79748.55625L.98563,1.34041A1.90705,1.90705,0,0,1,1.804.71531ZM.60416,2.48544c.00049-.0489.02586-.31678.02707-.318A1.89423,1.89423,0,0,1,.84047,1.5636l.08863.04776a1.42206,1.42206,0,0,0-.21189.65784A2.3699,2.3699,0,0,0,.97253,3.40487,2.35877,2.35877,0,0,1,.99526,1.64723l.07691.042a1.66878,1.66878,0,0,0-.182,1.052s.01488-.114.0164-.16825a1.69361,1.69361,0,0,1,.2187-.855l.01619.00865.04974.02659a1.34032,1.34032,0,0,0-.14093.34028A1.39488,1.39488,0,0,0,1.03,2.624a1.78874,1.78874,0,0,1,.22209-.83717l.05024.02705a1.1611,1.1611,0,0,0-.12.88131,1.0495,1.0495,0,0,0,.33195.62052,1.28307,1.28307,0,0,1-.27313-.80321,1.28074,1.28074,0,0,1,.13269-.65983l.05664.03053a.9667.9667,0,0,0-.12241.58583.96262.96262,0,0,0,.34044.75719,1.20176,1.20176,0,0,1-.255-.76437,1.14462,1.14462,0,0,1,.11319-.53755l.05761.03125A.96591.96591,0,0,0,1.682,3.01717,1.34829,1.34829,0,0,1,1.526,2.40849a1.09431,1.09431,0,0,1,.10281-.41793L1.685,2.021a.85527.85527,0,0,0-.08363.531.951.951,0,0,0,.41983.63855,1.00478,1.00478,0,0,1-.337-.76c.02253-.28336.096-.356.096-.356l.03018.015-.0426.09545.00055-.0002.06452-.08072c.02992.0064.05788.04349.08562.00756.02557-.03305-.00982-.05022-.031-.07225a.87032.87032,0,0,1,.71924-.274.25673.25673,0,0,0,.03951.01753.7816.7816,0,0,1,.51282.39586l.00822.00535.00394.00521a.6594.6594,0,0,0-.34444-.39038A.48428.48428,0,0,0,2.7765,1.7669a.77636.77636,0,0,0-.86794.19953l-.04712.0539-.02677-.02007a.8624.8624,0,0,1,.79571-.35051.88941.88941,0,0,0-.8532.30595l-.07957-.061a.89162.89162,0,0,1,.57782-.38678.92447.92447,0,0,0-.63074.345l-.06386-.04976.10185-.11607L1.68,1.68378l-.12175.10231-.09984-.07771.16629-.17668-.003-.00409L1.432,1.68776,1.35614,1.629c.02682-.05982.08833-.092.11166-.15327a.11619.11619,0,0,0,.03475-.01626,1.36589,1.36589,0,0,1,.704-.32824.2017.2017,0,0,0,.05361-.0145l-.19227.02714a.419.419,0,0,0,.00845-.05935c.00074-.14928.00045-.2986.00045-.45306a1.89353,1.89353,0,0,1,1.32551.1797L3.393.84294,3.37956.8764C3.33226.85346,3.2867.82988,3.24.80895a1.78175,1.78175,0,0,0-.71316-.1551A1.90932,1.90932,0,0,0,2.3143.66779a2.22952,2.22952,0,0,1,1.04408.2678l-.04775.13179a1.57017,1.57017,0,0,0-.593-.17472,2.71866,2.71866,0,0,1,.57172.23334.31365.31365,0,0,0-.01326.03.03864.03864,0,0,0,.03828.05179.30929.30929,0,0,1,.04513.00861L3.359,1.21578l-.00084-.00072.00037.00014-.01759-.02214L3.355,1.18521l.01663-.01a1.6421,1.6421,0,0,1,.5092.49232,1.16252,1.16252,0,0,0-.45636-.53275l.11729-.08437a2.41375,2.41375,0,0,1,.52732.51025,1.92134,1.92134,0,0,0-.47543-.54635l.057-.04273a1.92432,1.92432,0,0,1,.7258,1.22688,2.15279,2.15279,0,0,1-.00759.59613A2.26775,2.26775,0,0,1,4.17414,3.37l-.002.00025L4.169,3.37959l-.00891.017-.00453.00611c-.03045-.01638-.03385-.0075-.06426-.02388a1.34007,1.34007,0,0,0,.19434-.67356A1.8408,1.8408,0,0,0,4.0678,1.68647a1.21017,1.21017,0,0,0-.092-.12451,1.77253,1.77253,0,0,1,.21279.8656,1.33231,1.33231,0,0,1-.20494.88218l-.03775-.02063a1.23434,1.23434,0,0,0,.1952-.6048,1.2553,1.2553,0,0,0-.075-.57839,1.93637,1.93637,0,0,1-.003.65958,1.3766,1.3766,0,0,1-.19476.48986c-.02823-.01509-.00574-.01137-.03426-.02651a1.43559,1.43559,0,0,0,.15059-.84459,1.1288,1.1288,0,0,0-.359-.6825,1.22616,1.22616,0,0,1,.28947.84041A1.35746,1.35746,0,0,1,3.745,3.18l-.03762-.02026a1.384,1.384,0,0,0,.147-.79352,1.45521,1.45521,0,0,0-.38551-.71516.0865.0865,0,0,0,.009.02483,1.32452,1.32452,0,0,1,.29468.94378,1.14437,1.14437,0,0,1-.14932.49446l-.05656-.03051a1.20862,1.20862,0,0,0,.11432-.69442,1.03292,1.03292,0,0,0-.33243-.64863,1.2556,1.2556,0,0,1,.14184,1.30192l-.05753-.03125a1.1145,1.1145,0,0,0,.03488-.84611l-.00523.00249a1.10429,1.10429,0,0,1-.09423.80865l-.08072-.04382A.69882.69882,0,0,0,3.40219,2.55a.85436.85436,0,0,0-.4264-.77379A.9177.9177,0,0,1,3.2636,2.81161l-.00187.00158-.04488.07908-.03022-.01511.04268-.0954L3.22872,2.782l-.06452.08065c-.02993-.00633-.0579-.04342-.08562-.00754-.02554.03307.0098.05027.031.07229a.87053.87053,0,0,1-.71926.274.2631.2631,0,0,0-.03951-.01755A.7813.7813,0,0,1,1.83807,2.788l-.00824-.00543-.004-.00523a.65941.65941,0,0,0,.34444.39049.49592.49592,0,0,0,.05027.03213.77631.77631,0,0,0,.86793-.19949l.04711-.0539.02675.02007a.86263.86263,0,0,1-.79569.35044.88938.88938,0,0,0,.85324-.30591l.07951.061a.89168.89168,0,0,1-.57781.38682.92436.92436,0,0,0,.63073-.34507l.06386.04982-.10183.11606.00272.00328.12173-.10224.09986.07772-.16623.17669.00291.00408L3.565,3.27908l.07594.05874c-.02684.05985-.08843.092-.11164.15326a.11948.11948,0,0,0-.03485.01624,1.36538,1.36538,0,0,1-.70387.32824.2041.2041,0,0,0-.05369.01449L2.92912,3.823a.42558.42558,0,0,0-.00842.05929c-.00072.14858-.00037.297-.00037.45058l-.03248.00933q-.05973.01227-.11887.02075a2.3093,2.3093,0,0,1-.64318-.01614,2.00262,2.00262,0,0,1-.51764-.18435L1.595,4.15486l.009-.031.01341-.03346c.04729.02294.09285.04648.13955.06748a1.783,1.783,0,0,0,.71322.15511,1.91819,1.91819,0,0,0,.21254-.014,2.23085,2.23085,0,0,1-1.04412-.26784l.04776-.13175a1.56932,1.56932,0,0,0,.593.1747,2.71593,2.71593,0,0,1-.57168-.23333.29142.29142,0,0,0,.0132-.03A.03864.03864,0,0,0,1.68268,3.759.30872.30872,0,0,1,1.6376,3.7505l.00045.00053.00082.00078-.00039-.00023.01761.02224-.01406.0078-.01663.01006a1.64291,1.64291,0,0,1-.50921-.49232,1.16254,1.16254,0,0,0,.4564.53275l-.11734.08433A2.412,2.412,0,0,1,.928,3.40618a1.92022,1.92022,0,0,0,.47537.54634l-.04554.03422A1.90162,1.90162,0,0,1,.60416,2.48544ZM3.56358,4.04895a1.75052,1.75052,0,0,1-.37445.19473l-.06479-.13089a1.78018,1.78018,0,0,0,.79752-.55621l.08714.068A1.96929,1.96929,0,0,1,3.56358,4.04895ZM2.96283,3.8137a1.28942,1.28942,0,0,0,.72791-.4368l.17718.13767a1.71631,1.71631,0,0,1-.7608.56207L3.05742,3.979c-.02083-.04131-.04059-.08316-.06245-.12389A.32131.32131,0,0,0,2.96283,3.8137Z"/></g><text x="0" y="20" fill="#000000" font-size="5px" font-weight="bold" font-family="'Helvetica Neue', Helvetica, Arial-Unicode, Arial, Sans-serif">Created by Alice Noir</text><text x="0" y="25" fill="#000000" font-size="5px" font-weight="bold" font-family="'Helvetica Neue', Helvetica, Arial-Unicode, Arial, Sans-serif">from the Noun Project</text></svg>